<svg xmlns="http://www.w3.org/2000/svg" width="1411" height="539" viewBox="0 0 1411 539" fill="none"><path d="M278.042 526.446L210.528 294.197C246.31 274.662 267.24 235.592 267.24 174.817V150.217C267.24 64.1183 227.406 12.7486 128.16 12.7486H0.557861V526.446H93.7277V317.35H127.485L180.146 526.446H278.042ZM93.7277 82.2063H121.409C157.191 82.2063 170.694 100.294 170.694 147.323V179.881C170.694 229.804 157.866 252.957 121.409 252.957H93.7277V82.2063Z" fill="#0B0A09"></path><path d="M394.562 223.292V90.165H519.464V12.7486H301.393V526.446H524.19V449.03H394.562V300.709H510.012V223.292H394.562Z" fill="#0B0A09"></path><path d="M532.223 12.7486V90.165H624.043V526.446H716.538V90.165H808.357V12.7486H532.223Z" fill="#0B0A09"></path><path d="M957.622 538.746C1049.44 538.746 1103.45 480.865 1103.45 375.955V163.24C1103.45 58.3302 1049.44 0.44873 957.622 0.44873C865.802 0.44873 811.791 58.3302 811.791 163.24V375.955C811.791 480.865 865.802 538.746 957.622 538.746ZM957.622 459.883C925.89 459.883 908.337 434.56 908.337 388.254V150.94C908.337 104.635 925.89 79.3122 957.622 79.3122C988.679 79.3122 1006.91 104.635 1006.91 150.94V388.254C1006.91 434.56 988.679 459.883 957.622 459.883Z" fill="#0B0A09"></path><path d="M1410.68 526.446L1343.16 294.197C1378.94 274.662 1399.87 235.592 1399.87 174.817V150.217C1399.87 64.1183 1360.04 12.7486 1260.79 12.7486H1133.19V526.446H1226.36V317.35H1260.12L1312.78 526.446H1410.68ZM1226.36 82.2063H1254.04C1289.82 82.2063 1303.33 100.294 1303.33 147.323V179.881C1303.33 229.804 1290.5 252.957 1254.04 252.957H1226.36V82.2063Z" fill="#0B0A09"></path></svg>